<?xml version="1.0" encoding="UTF-8" standalone="no"?>
<!-- Created with Inkscape (http://www.inkscape.org/) -->

<svg
   width="177.20123"
   height="35.876648"
   viewBox="0 0 177.20123 35.876648"
   version="1.1"
   id="svg1"
   xml:space="preserve"
   inkscape:version="1.3.1 (91b66b0783, 2023-11-16)"
   sodipodi:docname="dibujo.svg"
   xmlns:inkscape="http://www.inkscape.org/namespaces/inkscape"
   xmlns:sodipodi="http://sodipodi.sourceforge.net/DTD/sodipodi-0.dtd"
   xmlns:xlink="http://www.w3.org/1999/xlink"
   xmlns="http://www.w3.org/2000/svg"
   xmlns:svg="http://www.w3.org/2000/svg"><sodipodi:namedview
     id="namedview1"
     pagecolor="#ffffff"
     bordercolor="#000000"
     borderopacity="0.25"
     inkscape:showpageshadow="2"
     inkscape:pageopacity="0.0"
     inkscape:pagecheckerboard="0"
     inkscape:deskcolor="#d1d1d1"
     inkscape:document-units="px"
     inkscape:zoom="5.6568543"
     inkscape:cx="82.731493"
     inkscape:cy="58.424698"
     inkscape:window-width="1920"
     inkscape:window-height="1009"
     inkscape:window-x="-8"
     inkscape:window-y="-8"
     inkscape:window-maximized="1"
     inkscape:current-layer="layer1"
     showguides="false" /><defs
     id="defs1"><linearGradient
       id="linearGradient18"
       inkscape:collect="always"><stop
         style="stop-color:#5560ff;stop-opacity:1;"
         offset="0"
         id="stop20" /><stop
         style="stop-color:#aa52a1;stop-opacity:1;"
         offset="0.07602343"
         id="stop21" /><stop
         style="stop-color:#ff4343;stop-opacity:1;"
         offset="0.15789475"
         id="stop19" /></linearGradient><clipPath
       clipPathUnits="userSpaceOnUse"
       id="clipPath479"><path
         id="path480"
         style="fill:#ff0000;fill-opacity:1;fill-rule:nonzero;stroke:none;stroke-width:0.759227"
         d="m 26.241345,54.9028 v 36.017545 h 19.091566 c -0.109475,-0.05896 0.04353,-0.203828 0.238307,-0.377047 -0.136753,-0.03379 -0.269356,-0.08057 -0.398677,-0.137908 -0.01854,-0.0089 -0.03438,-0.0219 -0.05096,-0.03374 -0.01479,0.0072 -0.03,0.01312 -0.04496,0.01907 -0.48823,0.663895 -1.404402,0.283076 -1.173551,-0.846523 0.0019,-0.0093 0.0041,-0.01855 0.006,-0.02788 -0.02096,-0.01912 -0.03787,-0.04212 -0.05845,-0.06162 -0.251468,0.03922 -0.506816,-0.09092 -0.647476,-0.374113 -0.396004,0.673197 -1.287022,0.461396 -1.257484,-0.658733 0.0065,-0.245651 -0.02466,-0.490906 0,-0.736488 0.01074,-0.107026 0.03295,-0.213436 0.04946,-0.319831 -0.01557,-0.01403 -0.02836,-0.0312 -0.04496,-0.04401 -2.022619,1.948759 -4.500291,0.153065 -2.976593,-2.605587 -0.185138,-0.168622 -0.32497,-0.459057 -0.341725,-0.874397 -0.0098,-0.242909 -0.01575,-0.485941 -0.01499,-0.729154 0.0053,-0.394109 0.0622,-0.785372 0.116906,-1.175155 0.03703,-0.294808 0.08861,-0.587006 0.13639,-0.880266 0.04862,-0.285794 0.06319,-0.575239 0.07644,-0.864127 0.01288,-0.32086 0.01754,-0.641361 0.02098,-0.962425 0.0012,-0.350251 0.0022,-0.701785 0.01199,-1.051917 0.0063,-0.36809 0.02061,-0.734869 0.05096,-1.1018 0.02463,-0.280542 0.04165,-0.562152 0.05246,-0.843588 0.0033,-0.350797 0.084,-0.68884 0.196341,-1.019641 0.168855,-0.453829 0.452729,-0.854911 0.738904,-1.244109 0.01779,-0.02308 0.03617,-0.04584 0.05395,-0.06896 0.01946,-0.04609 0.03588,-0.09332 0.05546,-0.139375 0.162913,-0.364698 0.299318,-0.741437 0.485607,-1.095932 0.118593,-0.204954 0.249139,-0.404255 0.391184,-0.594179 0.01531,-0.05175 0.02937,-0.103802 0.04496,-0.155513 0.07064,-0.266102 0.129226,-0.53594 0.176858,-0.806911 0.106058,-0.603377 0.436224,-0.889415 0.753889,-0.905206 0.188305,-0.0094 0.37156,0.07697 0.502095,0.24794 0.354524,-0.404046 0.800921,-0.619202 1.258983,-0.619119 0.14055,2.6e-5 0.280753,0.02211 0.41966,0.06015 0.02366,-0.0057 0.04399,-0.0063 0.06744,-0.01174 0.02815,-0.02821 0.05592,-0.05699 0.08393,-0.08509 0.268913,-0.263602 0.532926,-0.532884 0.822835,-0.774634 0.281564,-0.227318 0.612428,-0.377885 0.948733,-0.509088 0.350994,-0.140316 0.72161,-0.212849 1.094115,-0.272881 0.394448,-0.0632 0.794192,-0.08406 1.193036,-0.0983 0.436029,-0.01318 0.872128,-0.01753 1.308442,-0.02054 0.346169,-0.002 0.692486,-0.0024 1.03866,-0.0029 0.0068,-1e-5 0.01229,-7.51e-4 0.01799,0.0015 0.03869,-0.30626 0.356499,-0.552355 0.861804,-0.525225 0.142091,0.0076 0.299697,0.03678 0.46912,0.09243 0.221593,0.07277 0.437558,0.157937 0.648975,0.255277 0.09343,0.04824 0.183128,0.102949 0.275777,0.15258 0.205212,0.03502 0.362585,0.12816 0.458629,0.255277 0.0862,0.04967 0.17575,0.0938 0.260789,0.145244 0.165363,0.09939 0.323949,0.208956 0.485608,0.313961 0.139576,-0.103415 0.337704,-0.164443 0.586026,-0.152579 0.139557,0.0067 0.294375,0.03633 0.463126,0.09389 0.223345,0.07619 0.106481,0.03706 0.34622,0.120303 0.508316,0.187696 1.011074,0.400417 1.474808,0.679272 0.0686,0.04678 0.139665,0.09064 0.206833,0.139375 0.275256,0.19972 0.514929,0.440349 0.752391,0.680739 0.3023,0.317358 0.595316,0.643656 0.8663,0.987365 0.222806,0.285086 0.436931,0.576189 0.624995,0.884667 0.201566,0.313322 0.393219,0.633599 0.575534,0.958023 0.220185,0.387324 0.434916,0.777007 0.639983,1.172221 0.176185,0.359995 0.347425,0.724328 0.481111,1.101798 0.09728,0.277387 0.195648,0.553939 0.266784,0.839188 0.06269,0.261775 0.126963,0.523633 0.191845,0.784904 0.06695,0.310931 0.11903,0.625005 0.178356,0.937483 0.0527,0.35031 0.110986,0.70014 0.152876,1.051918 0.05144,0.426765 0.114803,0.852865 0.140886,1.282254 0.0242,0.374034 0.039,0.747366 0.02848,1.122339 -0.01094,0.304175 -0.04112,0.608191 -0.08543,0.909608 -0.03139,0.23099 -0.05729,0.462425 -0.09592,0.692476 -0.04206,0.248924 -0.09996,0.494545 -0.14838,0.742357 -0.06748,0.276458 -0.163428,0.544743 -0.263787,0.811312 -0.125347,0.295202 -0.272136,0.579652 -0.437646,0.855325 -0.266859,0.444376 -0.595503,0.622693 -0.870796,0.611785 -0.05273,0.135834 -0.09861,0.274195 -0.157373,0.407856 -0.224346,0.499557 -0.536022,0.953507 -0.855808,1.398156 -0.267327,0.371236 -0.538846,0.740009 -0.815341,1.104734 -0.447079,0.589768 -0.963048,0.619959 -1.243994,0.369711 -0.04005,0.112376 -0.07935,0.225225 -0.119903,0.337436 0.385449,0.354918 0.236195,0.932011 -0.467622,1.08566 -0.02365,0.03712 -0.04854,0.06992 -0.07344,0.102698 h 66.974854 c -0.083,-0.01563 -0.18484,-0.03592 -0.26079,-0.04988 -0.67882,-0.124793 -1.32512,-0.242719 -2.01138,-0.318363 -0.10606,-0.0117 -0.21282,-0.0184 -0.31924,-0.02641 -0.30345,0.301825 -0.84001,0.337849 -1.39237,-0.07336 -0.1432,-0.0034 -0.27504,-0.0059 -0.54706,-0.0044 -0.13362,7.52e-4 -0.26672,0.0024 -0.40018,0.0088 -0.0595,0.0029 -0.11896,0.02196 -0.17835,0.01761 -0.0247,-0.0018 0.0668,-0.05281 0.0539,-0.04988 -0.70724,0.164613 -1.2116,0.03074 -1.36239,-0.228869 -0.6635,-0.133232 -0.85914,-0.622999 -0.61751,-0.966825 -0.0269,-0.04706 -0.0212,-0.09841 -0.033,-0.148179 -0.14279,-0.243934 -0.0624,-0.520931 0.18585,-0.707146 -0.74407,-0.300825 -0.62121,-1.139346 0.29676,-1.235307 6.2e-4,-0.0059 -0.002,-0.0117 0.002,-0.01761 -0.15537,-0.125198 -0.30944,-0.280813 -0.45263,-0.492948 -0.10332,-0.153136 -0.047,-0.07158 -0.16787,-0.246474 -0.20809,-0.311754 -0.41771,-0.622891 -0.62349,-0.936016 -0.16233,-0.262608 -0.31148,-0.53319 -0.43166,-0.817182 -0.0994,-0.250093 -0.1995,-0.500323 -0.24879,-0.765831 -0.0593,-0.247877 -0.10648,-0.497942 -0.16787,-0.745291 -0.0655,-0.236624 -0.14932,-0.468104 -0.2308,-0.699812 -0.13057,-0.352572 -0.25228,-0.708607 -0.35672,-1.069523 -0.10144,-0.379656 -0.20755,-0.758351 -0.28177,-1.144346 -0.0793,-0.477056 -0.13707,-0.95805 -0.14238,-1.442169 0.002,-0.350844 0.0175,-0.700816 0.048,-1.050449 0.005,-0.0642 0.0275,-0.321027 0.039,-0.322765 0.30373,-0.04511 0.54487,-0.09139 0.76138,-0.134974 4.3e-4,-0.01519 -5.6e-4,-0.03028 0,-0.04548 0.0107,-0.525709 0.0532,-1.04957 0.10642,-1.572742 0.0656,-0.538366 0.12454,-1.09501 0.3702,-1.588879 0.22386,-0.450001 0.50582,-0.727341 0.78836,-0.865595 0.0528,-0.157697 0.0887,-0.320478 0.14987,-0.475344 0.16349,-0.396753 0.33299,-0.794883 0.58004,-1.150214 0.39101,-0.56236 0.83352,-0.800652 1.20353,-0.802509 0.0349,-1.73e-4 0.0658,0.01011 0.0989,0.01467 0.0174,-0.164834 0.0438,-0.328363 0.0914,-0.48708 0.0227,-0.07573 0.15233,-0.05288 0.22933,-0.07629 0.53101,-0.161431 1.07332,-0.289166 1.61869,-0.394652 0.0265,-0.02034 0.0529,-0.04131 0.0794,-0.06162 0.1436,-0.100808 0.32735,-0.237248 0.48262,-0.321297 0.22621,-0.122743 0.41186,-0.190911 0.65347,-0.280218 0.0549,-0.0203 0.0974,-0.03293 0.14538,-0.04988 0.0916,-0.0587 0.18272,-0.07714 0.27278,-0.0939 0.0228,-0.02727 0.0491,-0.05409 0.0764,-0.08069 -0.1157,-0.34086 0.13116,-0.769108 0.84531,-0.899337 0.30595,-0.05581 0.61653,-0.0757 0.92625,-0.09536 0.34304,-0.01741 0.68754,-0.0343 1.03117,-0.02934 0.17868,0.0026 0.30195,0.01025 0.47811,0.01907 0.25754,0.01093 0.50889,0.06779 0.76139,0.115901 0.0884,0.0011 0.1769,-0.0011 0.26528,0.0015 0.57605,0.0168 1.15222,0.03928 1.72661,0.08656 0.54127,0.05267 1.08486,0.120065 1.59621,0.312495 0.14008,0.05191 0.23086,0.08337 0.3687,0.142309 0.22921,0.098 0.44909,0.215703 0.66996,0.330101 0.28512,0.155949 0.56416,0.323198 0.83632,0.500284 0.10804,0.04464 0.19772,0.103993 0.26379,0.176052 0.34292,0.236828 0.68291,0.477005 1.00868,0.736489 0.39475,0.316128 0.78281,0.640088 1.14957,0.987365 0.0925,0.08632 0.31146,0.290686 0.40018,0.377047 0.17794,0.173319 0.34666,0.35417 0.51259,0.53843 0.0524,0.05826 0.10496,0.116242 0.15737,0.174587 0.27504,0.30412 0.5536,0.605973 0.84981,0.890535 0.15605,0.142444 0.31413,0.282688 0.4931,0.397586 0.68731,0.441224 0.66708,1.015447 0.29676,1.24411 0.0237,0.04072 0.051,0.06878 0.0734,0.112967 0.0807,0.158065 0.0459,0.08429 0.10942,0.220066 0.12266,0.259446 0.22791,0.526473 0.31474,0.799576 0.0939,0.266749 0.16653,0.538841 0.20683,0.818646 0.0356,0.212154 0.0701,0.424103 0.0914,0.638194 0.017,0.168272 0.0259,0.33866 0.051,0.506152 0.0309,0.22787 0.0573,0.455502 0.0854,0.683673 0.0291,0.239349 0.0489,0.480624 0.042,0.721818 -1e-5,0.214164 3e-5,0.426966 0,0.641127 -7e-5,0.192946 -0.003,0.386565 -0.003,0.579509 0,0.193205 -7e-4,0.386284 -0.003,0.579508 -0.002,0.185412 -0.005,0.371376 -0.0239,0.556035 -0.0241,0.200025 -0.0611,0.398389 -0.13189,0.588311 -0.0649,0.174925 -0.13052,0.350426 -0.22331,0.513488 -0.0957,0.180331 -0.20086,0.355826 -0.30576,0.531094 -0.0999,0.170865 -0.18678,0.348039 -0.27427,0.525225 -0.0917,0.178408 -0.13743,0.378532 -0.24431,0.550166 -0.059,0.118821 -0.10325,0.243397 -0.14238,0.369713 -0.0974,0.314552 -0.2375,0.539515 -0.39118,0.724751 -0.0486,0.235469 -0.1,0.470278 -0.15588,0.704214 -0.0605,0.24401 -0.1261,0.486698 -0.19785,0.727685 0.26866,0.08321 0.60342,0.203648 0.59503,0.492949 -0.007,0.239762 -0.0439,0.417035 -0.10342,0.550167 0.51406,0.05604 1.02797,0.113278 1.54226,0.167251 0.19978,0.02393 0.43344,0.04614 0.63099,0.09389 0.0661,0.016 0.17192,0.0012 0.19333,0.06455 0.25896,0.763881 0.55222,1.232467 -0.27127,1.3204 -0.44274,0.03771 -0.88696,0.06078 -1.33092,0.07922 -0.15537,0.0049 -0.31072,0.005 -0.46613,0.0088 0.19545,0.395552 -0.12606,0.909469 -0.96971,0.905207 -0.22531,-0.0011 -0.3389,-0.002 -0.5021,-0.0074 0.0202,0.07604 0.0281,0.152615 0.015,0.225934 h 15.77775 V 54.9028 Z m 29.926307,21.562112 c -0.01729,0.0084 -0.0217,0.03093 -0.02098,0.05722 0.0065,-0.01926 0.01525,-0.03766 0.02098,-0.05722 z m 68.343248,0.165784 c -0.01,0.0059 -0.0189,0.0117 -0.0285,0.01761 -0.0386,0.04564 -0.0838,0.08554 -0.1214,0.132039 -0.0734,0.094 -0.14518,0.189456 -0.21732,0.284619 -0.0174,0.05017 -0.0378,0.08885 -0.0824,0.221534 -0.0245,0.07328 -0.0474,0.146788 -0.0719,0.220066 -0.009,0.02826 -0.0206,0.0568 -0.03,0.08509 -0.004,0.01183 -0.003,0.02518 -0.0105,0.03521 -0.005,0.0065 0.002,-0.01683 0.003,-0.02494 0.008,-0.0833 0.009,-0.151492 0.003,-0.206863 -0.0848,0.412106 -0.34781,0.618631 -0.6235,0.616186 -0.0531,0.04503 -0.10639,0.085 -0.15887,0.118836 1e-4,0.0023 -7e-5,0.0035 0,0.0059 0.0236,0.52266 -0.15036,0.838286 -0.38369,0.950687 -0.0725,0.491862 -0.34847,0.757017 -0.64148,0.768765 0.049,0.365067 0.0804,0.644622 0.1244,1.048984 0.0272,0.271123 0.0507,0.542814 0.0764,0.814246 0.032,-0.06375 0.0648,-0.127852 0.0989,-0.190725 0.066,-0.106281 0.12797,-0.215395 0.19934,-0.318362 0.20893,-0.301571 0.47495,-0.574324 0.81534,-0.730621 0.15478,-0.07107 0.25702,-0.09996 0.32224,-0.09536 0.41337,0.02911 -0.69103,1.355974 -0.0525,1.376149 0.13251,-0.101254 0.27432,-0.149489 0.40767,-0.151113 0.34818,-0.0043 0.61368,0.326464 0.55006,0.852391 0.1195,0.04173 0.23707,0.126184 0.34622,0.247942 0.11564,-0.279613 0.32655,-0.419818 0.54555,-0.419594 0.30422,3.12e-4 0.6095,0.285973 0.70743,0.824517 0.0994,-0.242624 0.38028,-0.464495 0.8648,-0.542831 0.39488,-0.06384 0.79159,-0.10698 1.19154,-0.126172 0.21139,-0.01236 0.42129,-0.0413 0.63249,-0.05721 0.10069,-0.173775 0.22126,-0.33777 0.33872,-0.500285 0.1257,-0.176839 0.25776,-0.348318 0.39119,-0.519358 -0.3496,0.134909 -0.69599,0.27827 -1.03866,0.429865 -0.3154,0.143828 -0.16477,0.07361 -0.45264,0.211263 -1.22887,0.587589 -1.83492,-0.629769 -0.60551,-1.216235 0.31531,-0.150387 0.15251,-0.07358 0.49011,-0.227401 0.005,-0.0023 0.01,-0.005 0.015,-0.0074 -0.19268,-0.210729 -0.1983,-0.553612 0.0869,-0.867062 -0.065,-0.11825 -0.0866,-0.26707 -0.0435,-0.435731 -0.85153,0.334373 -1.36355,-0.253023 -1.00269,-0.815714 -0.11048,0.01353 -0.2196,0.03627 -0.33123,0.03961 -1.2337,0.03702 -1.35102,-1.012985 -0.35971,-1.28959 0.0831,-0.155938 0.20423,-0.314966 0.41367,-0.463607 0.0164,-0.01167 0.0119,-0.0079 0.0255,-0.01761 -0.38402,0.179468 -0.77041,0.353018 -1.16007,0.520825 -0.85803,0.369594 -1.38788,-0.09547 -1.23349,-0.598581 z m -70.077347,0.379981 c -0.09782,0.03742 -0.195549,0.07509 -0.293762,0.111501 -1.275436,0.472856 -2.571051,0.891792 -3.839896,1.382017 -0.139642,0.05245 -0.280049,0.103235 -0.41966,0.155514 -0.0048,0.03718 -0.01001,0.07433 -0.01499,0.1115 -0.01935,0.248557 -0.02592,0.497508 -0.02548,0.746759 -0.0036,0.300428 -0.0063,0.601002 -0.02698,0.900805 -0.02267,0.264916 -0.0607,0.528476 -0.134891,0.784904 -0.07615,0.274596 -0.155069,0.547868 -0.223319,0.824516 -0.05192,0.205516 -0.108536,0.410627 -0.146882,0.61912 0.08239,-0.003 0.164959,-0.0032 0.247301,-0.0074 0.517076,-0.02471 1.033725,-0.05259 1.551245,-0.06896 0.681842,-0.02622 1.36383,-0.04397 2.045846,-0.06162 0.05301,-0.143429 0.108863,-0.285812 0.167865,-0.426929 0.110602,-0.238984 0.198048,-0.487614 0.281772,-0.736489 0.0741,-0.257996 0.174225,-0.504508 0.299758,-0.742358 0.135328,-0.231247 0.271033,-0.46256 0.406171,-0.693943 0.04474,-0.343642 0.09552,-0.687752 0.127397,-1.032845 0.02526,-0.27352 0.02522,-0.359789 0.02997,-0.635259 0.0018,-0.104746 0.0019,-0.210608 0.003,-0.315428 -0.0067,-0.305166 -0.01859,-0.610645 -0.03447,-0.915477 z m 59.476417,0.774634 c -0.002,0.03326 -0.006,0.06679 0.0135,0.07482 -0.005,-0.02746 -0.009,-0.052 -0.0135,-0.07482 z M 54.460532,90.848457 c -0.02122,0.0113 -0.04172,0.02396 -0.06295,0.03521 -0.02512,0.01296 -0.05122,0.02392 -0.07644,0.03668 h 0.969716 c -0.0077,-0.02208 -0.01521,-0.04387 -0.02098,-0.06748 -0.269671,-2.26e-4 -0.539687,0.0038 -0.809344,-0.0044 z m -8.06498,0.04989 c -0.133602,0.0027 -0.266026,0.01191 -0.398678,0.02201 h 1.001191 c -0.200851,-0.009 -0.401558,-0.0168 -0.602513,-0.02201 z" /></clipPath><filter
       inkscape:collect="always"
       style="color-interpolation-filters:sRGB"
       id="filter13"
       x="-0.010116144"
       y="-0.011778456"
       width="1.02003"
       height="1.0236283"><feGaussianBlur
         inkscape:collect="always"
         stdDeviation="0.060567189"
         id="feGaussianBlur13" /></filter><filter
       inkscape:collect="always"
       style="color-interpolation-filters:sRGB"
       id="filter14"
       x="-0.021617558"
       y="-0.025350422"
       width="1.0431201"
       height="1.0507371"><feGaussianBlur
         inkscape:collect="always"
         stdDeviation="0.18548702"
         id="feGaussianBlur14" /></filter><filter
       inkscape:collect="always"
       style="color-interpolation-filters:sRGB"
       id="filter30"
       x="-0.015718433"
       y="-0.11260204"
       width="1.0314369"
       height="1.2252041"><feGaussianBlur
         inkscape:collect="always"
         stdDeviation="0.80201333"
         id="feGaussianBlur30" /></filter><filter
       inkscape:collect="always"
       style="color-interpolation-filters:sRGB"
       id="filter165"
       x="-0.040433098"
       y="-0.28965033"
       width="1.0808662"
       height="1.5793007"><feGaussianBlur
         inkscape:collect="always"
         stdDeviation="2.3493889"
         id="feGaussianBlur165" /></filter><linearGradient
       inkscape:collect="always"
       xlink:href="#linearGradient18"
       id="linearGradient208"
       gradientUnits="userSpaceOnUse"
       x1="26.241995"
       y1="72.911674"
       x2="150.24512"
       y2="72.911674" /></defs><g
     id="g179"
     inkscape:label="text-group"
     transform="matrix(1.303136,0,0,1.3312739,-34.2428,-86.204098)"
     style="display:inline"><g
       id="g184"
       sodipodi:insensitive="true"
       style="display:inline"><path
         class="st0"
         d="m 47.934229,65.555655 c -4.053981,0.77221 -20.735,-1.644913 -21.165,1.285087 l 4.31,5.15 c -1.57,1.36 -2.85,3.03 -3.32,5.64 0.13,1.61 0.57,2.96 1.33,4.04 1.29,1.850003 5.07,3.760003 7.11,2.670003 0.65,-0.35 1.02,-1.05 1.01,-2.240003 -0.02741,-10.91911 5.985469,-16.281906 12.311705,-16.597614 0,0 0.211841,-0.281974 -1.586705,0.05253 z"
         id="path181"
         sodipodi:nodetypes="cccccccccc"
         style="display:inline;opacity:0.5;mix-blend-mode:normal;fill:#ffffff;fill-opacity:1;stroke:#000000;stroke-width:0.0888295;stroke-dasharray:none;filter:url(#filter14)"
         clip-path="url(#clipPath479)"
         inkscape:label="contorno"
         sodipodi:insensitive="true" /><path
         class="st0"
         d="m 48.512355,65.456323 c -4.03,0.96 -21.313126,-1.545581 -21.743126,1.384419 l 4.31,5.15 c -1.57,1.36 -2.85,3.03 -3.32,5.64 0.13,1.61 0.57,2.96 1.33,4.04 1.29,1.850003 5.07,3.760003 7.11,2.670003 0.65,-0.35 1.02,-1.05 1.01,-2.240003 -0.02747,-10.94348 6.006318,-16.305817 12.348074,-16.599653 0.08694,-0.07335 -0.334588,-0.201531 -1.044948,-0.04477 z"
         id="path185"
         sodipodi:nodetypes="ccccccccc"
         style="display:inline;opacity:1;fill:url(#linearGradient208);fill-opacity:1;stroke:none;stroke-width:0.923979;stroke-dasharray:none"
         clip-path="url(#clipPath479)"
         inkscape:label="relleno-edit" /><path
         class="st0"
         d="m 47.661818,65.416826 c -4.03,0.96 -20.462589,-1.506084 -20.892589,1.423916 l 4.31,5.15 c -1.57,1.36 -2.85,3.03 -3.32,5.64 0.13,1.61 0.57,2.96 1.33,4.04 1.29,1.850003 5.07,3.760003 7.11,2.670003 0.65,-0.35 1.02,-1.05 1.01,-2.240003 -0.0274,-10.914237 6.008027,-16.194126 12.331154,-16.514196 0,0 1.05497,-0.451893 -1.878565,-0.16972 z"
         id="path184"
         sodipodi:nodetypes="ccccccccc"
         style="display:inline;opacity:0.9;mix-blend-mode:normal;fill:none;fill-opacity:1;stroke:#ffffff;stroke-width:0.164752;stroke-dasharray:none;filter:url(#filter13)"
         clip-path="url(#clipPath479)"
         inkscape:label="border-white"
         sodipodi:insensitive="true" /></g><path
       id="path212"
       style="font-weight:900;font-size:26.6667px;font-family:'Cinzel Decorative';-inkscape-font-specification:'Cinzel Decorative Heavy';letter-spacing:-2.49301px;word-spacing:0.432368px;white-space:pre;opacity:0.614958;fill:#ffffff;fill-rule:evenodd;stroke:#000000;stroke-width:0.534314;filter:url(#filter30)"
       d="m 26.996271,69.476472 c -3.840002,0 -6.879027,0.888423 -9.119028,2.666201 -2.24,1.76 -3.359737,4.124242 -3.359737,7.093132 0,2.951112 1.075317,5.297351 3.226429,7.039574 2.168889,1.742223 5.252335,2.614316 9.252336,2.614316 1.457778,0 2.79217,-0.248691 4.001059,-0.746469 2.542223,-1.048889 4.150575,-2.915748 4.826131,-5.600194 0.213333,-0.853333 0.320661,-1.68042 0.320661,-2.48042 0,-0.8 -0.05366,-1.555076 -0.16033,-2.266187 h -0.214375 v 0.639352 c 0,2.791112 -0.736646,5.013005 -2.212202,6.666339 -1.475556,1.635556 -3.485487,2.453642 -6.02771,2.453642 -2.311111,-0.07111 -4.078654,-0.871194 -5.305321,-2.400083 -1.226667,-1.546667 -1.8411,-3.599208 -1.8411,-6.159209 0,-2.56 0.5867,-4.560207 1.760034,-6.000207 1.173334,-1.457778 2.83535,-2.187523 4.986462,-2.187523 3.235556,0 5.315838,1.663174 6.240283,4.98762 h 0.239595 l 0.266617,-5.093063 c -1.92,-0.817778 -4.213137,-1.226821 -6.879804,-1.226821 z m 90.467889,0 c -3.84,0 -6.88083,0.888423 -9.12083,2.666201 -2.24,1.76 -3.35973,4.124242 -3.35973,7.093132 0,2.951112 1.07531,5.297351 3.22642,7.039574 2.16889,1.742223 5.25414,2.614316 9.25414,2.614316 1.45778,0 2.79037,-0.248691 3.99926,-0.746469 2.54222,-1.048889 4.15237,-2.915748 4.82793,-5.600194 0.21333,-0.853333 0.31886,-1.68042 0.31886,-2.48042 0,-0.8 -0.0537,-1.555076 -0.16033,-2.266187 h -0.21257 v 0.639352 c 0,2.791112 -0.73845,5.013005 -2.21401,6.666339 -1.47555,1.635556 -3.48368,2.453642 -6.0259,2.453642 -2.31112,-0.07111 -4.08046,-0.871194 -5.30713,-2.400083 -1.22666,-1.546667 -1.8393,-3.599208 -1.8393,-6.159209 0,-2.56 0.58671,-4.560207 1.76004,-6.000207 1.17333,-1.457778 2.83535,-2.187523 4.98646,-2.187523 3.23556,0 5.31584,1.663174 6.24028,4.98762 h 0.2396 l 0.26662,-5.093063 c -1.92001,-0.817778 -4.21314,-1.226821 -6.87981,-1.226821 z M 96.066332,73.15526 c -0.04267,0.455111 -0.399828,1.387079 -1.06827,2.795076 l -4.927014,11.156871 c -0.102627,0.191571 -0.218724,0.359964 -0.347683,0.505456 0.07872,0.121007 0.169523,0.233265 0.281029,0.328045 0.298666,0.241777 0.639235,0.361519 1.023234,0.361519 h 0.342278 v 0.214233 h 1.282645 v -0.214233 h -0.171139 c -0.327111,0 -0.569547,-0.09127 -0.725992,-0.27616 -0.142222,-0.199111 -0.212573,-0.377466 -0.212573,-0.53391 0,-0.170666 0.03518,-0.349021 0.106287,-0.53391 l 1.109704,-2.624358 h 4.991866 l 1.044851,2.624358 c 0.07111,0.170667 0.108088,0.341486 0.108088,0.512152 0,0.170666 -0.07955,0.356557 -0.235992,0.555668 -0.142222,0.184888 -0.369869,0.27616 -0.682756,0.27616 h -0.190956 v 0.214233 h 6.804141 v -0.214233 h -0.19095 c -0.34134,0 -0.67631,-0.09881 -1.00342,-0.297918 -0.32711,-0.213333 -0.59733,-0.526502 -0.81066,-0.938945 L 96.257287,73.15526 Z M 89.723365,87.612663 C 89.601273,87.42499 89.514394,87.209008 89.47116,86.958247 L 87.657082,73.284135 H 87.466127 L 81.108748,84.163172 74.49376,73.284135 h -0.190956 l -1.770842,13.674112 c -0.05689,0.412444 -0.234569,0.740684 -0.533234,0.982461 -0.0245,0.02082 -0.05213,0.03453 -0.07746,0.05356 l -0.117095,0.522194 h 3.287678 V 88.323987 H 74.77119 c -0.241777,0 -0.447237,-0.09295 -0.617903,-0.277834 -0.170669,-0.199111 -0.24102,-0.411798 -0.212574,-0.639353 l 0.830477,-7.680599 5.483667,9.217054 h 0.212573 c 0.01422,-0.696887 0.284439,-1.486507 0.81066,-2.368282 l 4.011868,-6.912373 0.830476,7.7442 c 0.02845,0.227555 -0.04191,0.440242 -0.212573,0.639353 -0.170666,0.184888 -0.376126,0.277834 -0.617903,0.277834 h -0.320661 v 0.192475 h 3.11834 v -0.214233 h 0.190955 c 0.32711,0 0.65469,-0.09881 0.9818,-0.297918 0.169748,-0.103325 0.323868,-0.234702 0.462977,-0.391646 z m -17.802101,0.381603 0.862903,-3.831094 h -0.212573 c -0.341332,1.095108 -0.866976,1.941668 -1.578085,2.539 -0.696888,0.597331 -1.564901,0.897102 -2.603121,0.897102 h -2.794075 v -5.995186 h 2.837311 c 0.341332,0.01422 0.65412,0.09963 0.938564,0.256075 0.568888,0.341333 0.852094,0.867188 0.852094,1.578298 v 0.170717 h 0.214375 v -4.927367 h -0.214375 v 0.190802 c 0,0.511998 -0.170284,0.946582 -0.511617,1.302137 -0.341332,0.341334 -0.774437,0.519689 -1.300659,0.533909 H 65.596313 V 74.49924 h 3.583118 c 0.639999,0.02845 1.145257,0.242805 1.515034,0.641026 0.383999,0.383999 0.57647,0.896456 0.57647,1.536455 v 0.256076 h 0.212573 v -3.73402 c -0.213333,0.08533 -0.583483,0.170742 -1.109704,0.256075 -0.526221,0.08533 -1.009294,0.127201 -1.450181,0.127201 h -6.850981 v 0.214234 h -0.40533 c -0.109744,0 -0.213195,0.01578 -0.313455,0.04017 0.114491,0.0284 0.22621,0.07153 0.336874,0.130548 0.426666,0.241777 0.661707,0.611886 0.704374,1.109662 v 11.881581 c -0.01422,0.369777 -0.156726,0.690481 -0.426948,0.960703 -0.255999,0.255999 -0.568787,0.383277 -0.938564,0.383277 h -0.277426 v 0.214233 h 9.881048 v -0.214233 h 0.342279 c 0.363929,0 0.676867,-0.106031 0.94577,-0.307962 z M 61.353857,73.836456 c -0.106219,-0.02635 -0.214751,-0.04017 -0.324264,-0.04017 h -0.277426 v -0.214234 h -5.14319 v 0.214234 h 0.383713 c 0.355555,0 0.660948,0.127277 0.916947,0.383277 0.255999,0.241777 0.391107,0.547409 0.40533,0.917186 v 8.427069 L 46.542192,73.262377 h -0.192757 l 0.04324,0.319676 c 0.128,0.625777 0.192757,1.407861 0.192757,2.346525 v 11.073186 c 0,0.369777 -0.129515,0.682945 -0.385514,0.938944 -0.214036,0.202145 -0.470253,0.31332 -0.763822,0.346456 0.05416,0.006 0.107448,0.01506 0.163934,0.01506 h 0.255808 l 0.02162,0.214233 h 5.46385 v -0.214233 h -0.40533 c -0.355554,0 -0.660947,-0.119742 -0.916947,-0.361519 -0.255999,-0.255999 -0.383712,-0.563305 -0.383712,-0.91886 V 78.552933 L 60.408093,88.814375 H 60.60085 L 60.536,88.494699 C 60.408,87.840478 60.345044,87.03746 60.345044,86.084574 V 75.076666 c 0.01422,-0.355555 0.149331,-0.655325 0.40533,-0.897102 0.176983,-0.176984 0.378925,-0.288481 0.603492,-0.343108 z M 45.436091,88.287164 c -0.300407,-0.03313 -0.567304,-0.15132 -0.796249,-0.368214 -0.270221,-0.270222 -0.40533,-0.590926 -0.40533,-0.960703 V 75.118508 c 0,-0.369777 0.135109,-0.682945 0.40533,-0.938944 0.270222,-0.256 0.590406,-0.383277 0.960183,-0.383277 h 0.255808 l 0.02162,-0.214234 H 39.39217 v 0.214234 h 0.277426 c 0.369777,0 0.682565,0.127277 0.938564,0.383277 0.270222,0.255999 0.412726,0.569167 0.426948,0.938944 v 11.839739 c -0.01422,0.369777 -0.156726,0.690481 -0.426948,0.960703 -0.255999,0.255999 -0.568787,0.383277 -0.938564,0.383277 H 39.39217 v 0.214233 h 5.485468 v -0.214233 h 0.383713 c 0.06061,0 0.117185,-0.0086 0.174742,-0.01506 z M 131.76061,73.15526 c -0.0427,0.455111 -0.39803,1.387079 -1.06647,2.795076 l -4.92882,11.156871 c -0.21333,0.398221 -0.48355,0.697991 -0.81066,0.897102 -0.32711,0.19911 -0.65469,0.297918 -0.9818,0.297918 h -0.19095 v 0.214233 h 4.56492 v -0.214233 h -0.17114 c -0.32712,0 -0.56775,-0.09127 -0.72419,-0.27616 -0.14222,-0.199111 -0.21438,-0.377466 -0.21438,-0.53391 0,-0.170666 0.0352,-0.349021 0.10629,-0.53391 l 1.1097,-2.624358 h 4.99187 l 1.04665,2.624358 c 0.0711,0.170667 0.10629,0.341486 0.10629,0.512152 0,0.170666 -0.0777,0.356557 -0.23419,0.555668 -0.14222,0.184888 -0.36987,0.27616 -0.68276,0.27616 h -0.19276 v 0.214233 h 4.61176 v -0.214233 h 0.27562 c 0.31576,0 0.58687,-0.08338 0.81066,-0.251055 -0.0294,-0.01622 -0.059,-0.02904 -0.0883,-0.04686 -0.32711,-0.213333 -0.59732,-0.526502 -0.81066,-0.938945 L 131.95156,73.15526 Z m 7.42564,14.895912 c 0.299,0.165066 0.60437,0.251055 0.91515,0.251055 h 0.19276 v 0.214233 h 4.29109 v -0.214233 h -0.27742 c -0.24178,0 -0.46943,-0.05694 -0.68276,-0.170717 -0.44091,-0.256 -0.66856,-0.647042 -0.68276,-1.173263 V 74.520998 h 0.0631 0.91694 0.64133 c 0.73955,0.01422 1.34294,0.285523 1.81227,0.811743 0.46933,0.511999 0.70438,1.351023 0.70438,2.517242 0,0.170667 -0.0278,0.404288 -0.0847,0.702953 -0.17067,0.867554 -0.50565,1.49389 -1.00342,1.877889 -0.48355,0.383999 -1.04437,0.575753 -1.68437,0.575753 h -0.66114 v 0.214233 c 0.5831,0.09956 1.06618,0.576007 1.45018,1.429338 0.128,0.355554 0.39082,0.951748 0.78904,1.790857 0.39823,0.824886 0.72581,1.443687 0.9818,1.856131 0.512,0.810664 1.17275,1.387597 1.98342,1.72893 0.81066,0.32711 1.82118,0.490393 3.03007,0.490393 h 2.0897 v -0.214233 c -0.55467,-0.01422 -1.01736,-0.133964 -1.38713,-0.361519 -0.73955,-0.469332 -1.87598,-1.934692 -3.41198,-4.395131 -0.62577,-0.98133 -1.35128,-1.607667 -2.17617,-1.877889 0.768,-0.08533 1.42135,-0.341562 1.96179,-0.768227 0.55467,-0.426666 0.94701,-0.924051 1.17456,-1.492939 0.24178,-0.568887 0.3621,-1.187688 0.3621,-1.856131 0,-0.682664 -0.14251,-1.286394 -0.42695,-1.812615 -0.28445,-0.540443 -0.66759,-0.959955 -1.15114,-1.25862 -0.95289,-0.597333 -2.1207,-0.897103 -3.50025,-0.897103 h -7.31576 v 0.214234 h 0.27562 c 0.36978,0 0.68437,0.134813 0.94037,0.405035 0.27024,0.255999 0.41095,0.569168 0.42515,0.938944 v 11.83974 c -0.0142,0.241777 -0.0772,0.462 -0.19096,0.66111 -0.10357,0.168991 -0.2248,0.305839 -0.3639,0.410056 z m -43.867527,-9.859754 2.069886,5.247043 h -4.267676 z m 35.694277,0 2.06988,5.247043 h -4.26587 z"
       transform="matrix(0.83198193,0,0,0.87656785,29.465671,8.7948258)"
       sodipodi:insensitive="true" /><path
       id="path209"
       style="font-weight:900;font-size:26.6667px;font-family:'Cinzel Decorative';-inkscape-font-specification:'Cinzel Decorative Heavy';letter-spacing:-2.49301px;word-spacing:0.432368px;white-space:pre;opacity:0.609418;fill:#ffffff;fill-rule:evenodd;stroke:#000000;stroke-width:0;filter:url(#filter165)"
       d="m 26.996271,69.476472 c -3.840002,0 -6.879027,0.888423 -9.119028,2.666201 -2.24,1.76 -3.359737,4.124242 -3.359737,7.093132 0,2.951112 1.075317,5.297351 3.226429,7.039574 2.168889,1.742223 5.252335,2.614316 9.252336,2.614316 1.457778,0 2.79217,-0.248691 4.001059,-0.746469 2.542223,-1.048889 4.150575,-2.915748 4.826131,-5.600194 0.213333,-0.853333 0.320661,-1.68042 0.320661,-2.48042 0,-0.8 -0.05366,-1.555076 -0.16033,-2.266187 h -0.214375 v 0.639352 c 0,2.791112 -0.736646,5.013005 -2.212202,6.666339 -1.475556,1.635556 -3.485487,2.453642 -6.02771,2.453642 -2.311111,-0.07111 -4.078654,-0.871194 -5.305321,-2.400083 -1.226667,-1.546667 -1.8411,-3.599208 -1.8411,-6.159209 0,-2.56 0.5867,-4.560207 1.760034,-6.000207 1.173334,-1.457778 2.83535,-2.187523 4.986462,-2.187523 3.235556,0 5.315838,1.663174 6.240283,4.98762 h 0.239595 l 0.266617,-5.093063 c -1.92,-0.817778 -4.213137,-1.226821 -6.879804,-1.226821 z m 90.467889,0 c -3.84,0 -6.88083,0.888423 -9.12083,2.666201 -2.24,1.76 -3.35973,4.124242 -3.35973,7.093132 0,2.951112 1.07531,5.297351 3.22642,7.039574 2.16889,1.742223 5.25414,2.614316 9.25414,2.614316 1.45778,0 2.79037,-0.248691 3.99926,-0.746469 2.54222,-1.048889 4.15237,-2.915748 4.82793,-5.600194 0.21333,-0.853333 0.31886,-1.68042 0.31886,-2.48042 0,-0.8 -0.0537,-1.555076 -0.16033,-2.266187 h -0.21257 v 0.639352 c 0,2.791112 -0.73845,5.013005 -2.21401,6.666339 -1.47555,1.635556 -3.48368,2.453642 -6.0259,2.453642 -2.31112,-0.07111 -4.08046,-0.871194 -5.30713,-2.400083 -1.22666,-1.546667 -1.8393,-3.599208 -1.8393,-6.159209 0,-2.56 0.58671,-4.560207 1.76004,-6.000207 1.17333,-1.457778 2.83535,-2.187523 4.98646,-2.187523 3.23556,0 5.31584,1.663174 6.24028,4.98762 h 0.2396 l 0.26662,-5.093063 c -1.92001,-0.817778 -4.21314,-1.226821 -6.87981,-1.226821 z M 96.066332,73.15526 c -0.04267,0.455111 -0.399828,1.387079 -1.06827,2.795076 l -4.927014,11.156871 c -0.102627,0.191571 -0.218724,0.359964 -0.347683,0.505456 0.07872,0.121007 0.169523,0.233265 0.281029,0.328045 0.298666,0.241777 0.639235,0.361519 1.023234,0.361519 h 0.342278 v 0.214233 h 1.282645 v -0.214233 h -0.171139 c -0.327111,0 -0.569547,-0.09127 -0.725992,-0.27616 -0.142222,-0.199111 -0.212573,-0.377466 -0.212573,-0.53391 0,-0.170666 0.03518,-0.349021 0.106287,-0.53391 l 1.109704,-2.624358 h 4.991866 l 1.044851,2.624358 c 0.07111,0.170667 0.108088,0.341486 0.108088,0.512152 0,0.170666 -0.07955,0.356557 -0.235992,0.555668 -0.142222,0.184888 -0.369869,0.27616 -0.682756,0.27616 h -0.190956 v 0.214233 h 6.804141 v -0.214233 h -0.19095 c -0.34134,0 -0.67631,-0.09881 -1.00342,-0.297918 -0.32711,-0.213333 -0.59733,-0.526502 -0.81066,-0.938945 L 96.257287,73.15526 Z M 89.723365,87.612663 C 89.601273,87.42499 89.514394,87.209008 89.47116,86.958247 L 87.657082,73.284135 H 87.466127 L 81.108748,84.163172 74.49376,73.284135 h -0.190956 l -1.770842,13.674112 c -0.05689,0.412444 -0.234569,0.740684 -0.533234,0.982461 -0.0245,0.02082 -0.05213,0.03453 -0.07746,0.05356 l -0.117095,0.522194 h 3.287678 V 88.323987 H 74.77119 c -0.241777,0 -0.447237,-0.09295 -0.617903,-0.277834 -0.170669,-0.199111 -0.24102,-0.411798 -0.212574,-0.639353 l 0.830477,-7.680599 5.483667,9.217054 h 0.212573 c 0.01422,-0.696887 0.284439,-1.486507 0.81066,-2.368282 l 4.011868,-6.912373 0.830476,7.7442 c 0.02845,0.227555 -0.04191,0.440242 -0.212573,0.639353 -0.170666,0.184888 -0.376126,0.277834 -0.617903,0.277834 h -0.320661 v 0.192475 h 3.11834 v -0.214233 h 0.190955 c 0.32711,0 0.65469,-0.09881 0.9818,-0.297918 0.169748,-0.103325 0.323868,-0.234702 0.462977,-0.391646 z m -17.802101,0.381603 0.862903,-3.831094 h -0.212573 c -0.341332,1.095108 -0.866976,1.941668 -1.578085,2.539 -0.696888,0.597331 -1.564901,0.897102 -2.603121,0.897102 h -2.794075 v -5.995186 h 2.837311 c 0.341332,0.01422 0.65412,0.09963 0.938564,0.256075 0.568888,0.341333 0.852094,0.867188 0.852094,1.578298 v 0.170717 h 0.214375 v -4.927367 h -0.214375 v 0.190802 c 0,0.511998 -0.170284,0.946582 -0.511617,1.302137 -0.341332,0.341334 -0.774437,0.519689 -1.300659,0.533909 H 65.596313 V 74.49924 h 3.583118 c 0.639999,0.02845 1.145257,0.242805 1.515034,0.641026 0.383999,0.383999 0.57647,0.896456 0.57647,1.536455 v 0.256076 h 0.212573 v -3.73402 c -0.213333,0.08533 -0.583483,0.170742 -1.109704,0.256075 -0.526221,0.08533 -1.009294,0.127201 -1.450181,0.127201 h -6.850981 v 0.214234 h -0.40533 c -0.109744,0 -0.213195,0.01578 -0.313455,0.04017 0.114491,0.0284 0.22621,0.07153 0.336874,0.130548 0.426666,0.241777 0.661707,0.611886 0.704374,1.109662 v 11.881581 c -0.01422,0.369777 -0.156726,0.690481 -0.426948,0.960703 -0.255999,0.255999 -0.568787,0.383277 -0.938564,0.383277 h -0.277426 v 0.214233 h 9.881048 v -0.214233 h 0.342279 c 0.363929,0 0.676867,-0.106031 0.94577,-0.307962 z M 61.353857,73.836456 c -0.106219,-0.02635 -0.214751,-0.04017 -0.324264,-0.04017 h -0.277426 v -0.214234 h -5.14319 v 0.214234 h 0.383713 c 0.355555,0 0.660948,0.127277 0.916947,0.383277 0.255999,0.241777 0.391107,0.547409 0.40533,0.917186 v 8.427069 L 46.542192,73.262377 h -0.192757 l 0.04324,0.319676 c 0.128,0.625777 0.192757,1.407861 0.192757,2.346525 v 11.073186 c 0,0.369777 -0.129515,0.682945 -0.385514,0.938944 -0.214036,0.202145 -0.470253,0.31332 -0.763822,0.346456 0.05416,0.006 0.107448,0.01506 0.163934,0.01506 h 0.255808 l 0.02162,0.214233 h 5.46385 v -0.214233 h -0.40533 c -0.355554,0 -0.660947,-0.119742 -0.916947,-0.361519 -0.255999,-0.255999 -0.383712,-0.563305 -0.383712,-0.91886 V 78.552933 L 60.408093,88.814375 H 60.60085 L 60.536,88.494699 C 60.408,87.840478 60.345044,87.03746 60.345044,86.084574 V 75.076666 c 0.01422,-0.355555 0.149331,-0.655325 0.40533,-0.897102 0.176983,-0.176984 0.378925,-0.288481 0.603492,-0.343108 z M 45.436091,88.287164 c -0.300407,-0.03313 -0.567304,-0.15132 -0.796249,-0.368214 -0.270221,-0.270222 -0.40533,-0.590926 -0.40533,-0.960703 V 75.118508 c 0,-0.369777 0.135109,-0.682945 0.40533,-0.938944 0.270222,-0.256 0.590406,-0.383277 0.960183,-0.383277 h 0.255808 l 0.02162,-0.214234 H 39.39217 v 0.214234 h 0.277426 c 0.369777,0 0.682565,0.127277 0.938564,0.383277 0.270222,0.255999 0.412726,0.569167 0.426948,0.938944 v 11.839739 c -0.01422,0.369777 -0.156726,0.690481 -0.426948,0.960703 -0.255999,0.255999 -0.568787,0.383277 -0.938564,0.383277 H 39.39217 v 0.214233 h 5.485468 v -0.214233 h 0.383713 c 0.06061,0 0.117185,-0.0086 0.174742,-0.01506 z M 131.76061,73.15526 c -0.0427,0.455111 -0.39803,1.387079 -1.06647,2.795076 l -4.92882,11.156871 c -0.21333,0.398221 -0.48355,0.697991 -0.81066,0.897102 -0.32711,0.19911 -0.65469,0.297918 -0.9818,0.297918 h -0.19095 v 0.214233 h 4.56492 v -0.214233 h -0.17114 c -0.32712,0 -0.56775,-0.09127 -0.72419,-0.27616 -0.14222,-0.199111 -0.21438,-0.377466 -0.21438,-0.53391 0,-0.170666 0.0352,-0.349021 0.10629,-0.53391 l 1.1097,-2.624358 h 4.99187 l 1.04665,2.624358 c 0.0711,0.170667 0.10629,0.341486 0.10629,0.512152 0,0.170666 -0.0777,0.356557 -0.23419,0.555668 -0.14222,0.184888 -0.36987,0.27616 -0.68276,0.27616 h -0.19276 v 0.214233 h 4.61176 v -0.214233 h 0.27562 c 0.31576,0 0.58687,-0.08338 0.81066,-0.251055 -0.0294,-0.01622 -0.059,-0.02904 -0.0883,-0.04686 -0.32711,-0.213333 -0.59732,-0.526502 -0.81066,-0.938945 L 131.95156,73.15526 Z m 7.42564,14.895912 c 0.299,0.165066 0.60437,0.251055 0.91515,0.251055 h 0.19276 v 0.214233 h 4.29109 v -0.214233 h -0.27742 c -0.24178,0 -0.46943,-0.05694 -0.68276,-0.170717 -0.44091,-0.256 -0.66856,-0.647042 -0.68276,-1.173263 V 74.520998 h 0.0631 0.91694 0.64133 c 0.73955,0.01422 1.34294,0.285523 1.81227,0.811743 0.46933,0.511999 0.70438,1.351023 0.70438,2.517242 0,0.170667 -0.0278,0.404288 -0.0847,0.702953 -0.17067,0.867554 -0.50565,1.49389 -1.00342,1.877889 -0.48355,0.383999 -1.04437,0.575753 -1.68437,0.575753 h -0.66114 v 0.214233 c 0.5831,0.09956 1.06618,0.576007 1.45018,1.429338 0.128,0.355554 0.39082,0.951748 0.78904,1.790857 0.39823,0.824886 0.72581,1.443687 0.9818,1.856131 0.512,0.810664 1.17275,1.387597 1.98342,1.72893 0.81066,0.32711 1.82118,0.490393 3.03007,0.490393 h 2.0897 v -0.214233 c -0.55467,-0.01422 -1.01736,-0.133964 -1.38713,-0.361519 -0.73955,-0.469332 -1.87598,-1.934692 -3.41198,-4.395131 -0.62577,-0.98133 -1.35128,-1.607667 -2.17617,-1.877889 0.768,-0.08533 1.42135,-0.341562 1.96179,-0.768227 0.55467,-0.426666 0.94701,-0.924051 1.17456,-1.492939 0.24178,-0.568887 0.3621,-1.187688 0.3621,-1.856131 0,-0.682664 -0.14251,-1.286394 -0.42695,-1.812615 -0.28445,-0.540443 -0.66759,-0.959955 -1.15114,-1.25862 -0.95289,-0.597333 -2.1207,-0.897103 -3.50025,-0.897103 h -7.31576 v 0.214234 h 0.27562 c 0.36978,0 0.68437,0.134813 0.94037,0.405035 0.27024,0.255999 0.41095,0.569168 0.42515,0.938944 v 11.83974 c -0.0142,0.241777 -0.0772,0.462 -0.19096,0.66111 -0.10357,0.168991 -0.2248,0.305839 -0.3639,0.410056 z m -43.867527,-9.859754 2.069886,5.247043 h -4.267676 z m 35.694277,0 2.06988,5.247043 h -4.26587 z"
       transform="matrix(0.83198193,0,0,0.87656785,29.465671,8.7948258)"
       sodipodi:insensitive="true" /><g
       id="g208"
       style="font-weight:bold;font-size:18.6667px;font-family:'Cinzel Decorative';-inkscape-font-specification:'Cinzel Decorative Bold';letter-spacing:-2.49301px;word-spacing:0.432368px;white-space:pre;display:inline;fill:#ffffff;fill-rule:evenodd;stroke-width:0.801026"
       inkscape:label="text"
       transform="matrix(0.83198193,0,0,0.87656785,29.465671,8.7948258)"
       aria-label="C inema Car"><g
         id="g215"
         inkscape:label="cinemac"><path
           style="font-weight:900;font-size:26.6667px;-inkscape-font-specification:'Cinzel Decorative Heavy'"
           d="m 35.983361,77.795965 q 0.16,1.066668 0.16,2.266669 0,1.200002 -0.32,2.480003 -1.013335,4.026672 -4.826673,5.600007 -1.813336,0.746668 -4.000005,0.746668 -6.000008,0 -9.253345,-2.613337 -3.226671,-2.613336 -3.226671,-7.040009 0,-4.453339 3.360004,-7.093342 3.360004,-2.66667 9.120012,-2.66667 4.000005,0 6.880008,1.226668 l -0.266667,5.09334 h -0.24 q -1.386668,-4.986673 -6.240008,-4.986673 -3.22667,0 -4.986673,2.18667 -1.760002,2.160002 -1.760002,6.000007 0,3.840005 1.840002,6.160008 1.840003,2.293336 5.306674,2.400003 3.813338,0 6.026674,-2.453336 2.213336,-2.480004 2.213336,-6.666676 0,-0.32 0,-0.64 z"
           id="path205" /><path
           style="font-size:21.3333px"
           d="m 39.669715,88.302645 q 0.554666,0 0.938665,-0.383999 0.405333,-0.405333 0.426666,-0.959999 V 75.118666 Q 41.013713,74.564 40.60838,74.180001 q -0.383999,-0.384 -0.938665,-0.384 h -0.277333 v -0.213333 h 6.485323 l -0.02133,0.213333 h -0.256 q -0.554665,0 -0.959998,0.384 -0.405333,0.383999 -0.405333,0.938665 v 11.839981 q 0,0.554666 0.405333,0.959999 0.405333,0.383999 0.959998,0.383999 h 0.256 l 0.02133,0.213333 H 39.392382 V 88.302645 Z M 61.667326,73.796001 q -0.533333,0 -0.917332,0.384 -0.384,0.362666 -0.405333,0.895998 v 11.007983 q 0,1.429331 0.192,2.410663 l 0.064,0.319999 h -0.192 L 49.635345,78.553327 v 8.46932 q 0,0.533333 0.383999,0.917332 0.384,0.362666 0.917332,0.362666 h 0.405333 v 0.213333 h -6.46399 v -0.213333 h 0.383999 q 0.554666,0 0.938666,-0.362666 0.383999,-0.383999 0.383999,-0.938665 V 75.929331 q 0,-1.407997 -0.192,-2.346663 l -0.04267,-0.319999 h 0.191999 L 57.315333,83.523986 V 75.097333 Q 57.293999,74.542667 56.91,74.180001 q -0.383999,-0.384 -0.917332,-0.384 h -0.383999 v -0.213333 h 6.463989 v 0.213333 z m -0.637034,14.506644 q 0.554666,0 0.938665,-0.383999 0.405333,-0.405333 0.426666,-0.959999 V 75.075999 q -0.064,-0.746665 -0.703999,-1.109331 -0.319999,-0.170667 -0.661332,-0.170667 h -0.277333 v -0.213333 h 8.170654 q 0.661332,0 1.450664,-0.127999 0.789332,-0.128 1.109332,-0.256 v 3.733327 h -0.213333 v -0.255999 q 0,-0.959999 -0.575999,-1.535998 Q 70.139611,74.542667 69.179612,74.5 h -3.583994 v 6.20799 h 2.815995 q 0.789333,-0.02133 1.301332,-0.533332 0.511999,-0.533332 0.511999,-1.301331 v -0.192 h 0.213333 v 4.927992 h -0.213333 v -0.170666 q 0,-1.066665 -0.853332,-1.578664 -0.426666,-0.234667 -0.938665,-0.256 h -2.837329 v 5.994657 h 2.794662 q 1.557331,0 2.602663,-0.895998 1.066665,-0.895999 1.578664,-2.538663 h 0.213333 l -0.981332,4.351993 H 60.752959 v -0.213333 z m 29.997614,0 h 0.341333 v 0.213333 h -6.39999 v -0.192 h 0.32 q 0.362666,0 0.618665,-0.277332 0.256,-0.298667 0.213333,-0.639999 l -0.831998,-7.743988 -4.010661,6.911989 q -0.789332,1.322664 -0.810665,2.367996 H 80.25459 l -5.482658,-9.215985 -0.831999,7.679988 q -0.04267,0.341332 0.213333,0.639999 0.256,0.277332 0.618666,0.277332 h 0.32 v 0.192 h -4.45866 v -0.213333 h 0.341333 q 0.597332,0 1.023998,-0.362666 0.447999,-0.362666 0.533333,-0.981332 l 1.770663,-13.674645 h 0.192 l 6.613323,10.879983 6.357323,-10.879983 h 0.192 l 1.81333,13.674645 q 0.106667,0.618666 0.533333,0.981332 0.447999,0.362666 1.023998,0.362666 z m 13.378954,0 h 0.19199 v 0.213333 h -6.805318 v -0.213333 h 0.192 q 0.469332,0 0.682665,-0.277333 0.234667,-0.298666 0.234667,-0.554666 0,-0.255999 -0.106667,-0.511999 l -1.045331,-2.623996 h -4.991993 l -1.109331,2.623996 q -0.106667,0.277333 -0.106667,0.533333 0,0.234666 0.213333,0.533332 0.234667,0.277333 0.725333,0.277333 h 0.170666 v 0.213333 h -4.565326 v -0.213333 h 0.192 q 0.490665,0 0.981331,-0.298666 0.490666,-0.298666 0.810666,-0.895999 L 94.99887,75.950665 q 1.002665,-2.111997 1.066665,-2.794663 h 0.192 l 6.335985,13.909312 q 0.32,0.618665 0.81067,0.938665 0.49067,0.298666 1.00267,0.298666 z M 93.12154,83.438653 h 4.266659 l -2.06933,-5.247992 z"
           id="path206" /><path
           style="font-weight:900;font-size:26.6667px;-inkscape-font-specification:'Cinzel Decorative Heavy';image-rendering:auto"
           d="m 126.45055,77.795965 q 0.16,1.066668 0.16,2.266669 0,1.200002 -0.32,2.480003 -1.01334,4.026672 -4.82668,5.600007 -1.81333,0.746668 -4,0.746668 -6.00001,0 -9.25335,-2.613337 -3.22667,-2.613336 -3.22667,-7.040009 0,-4.453339 3.36001,-7.093342 3.36,-2.66667 9.12001,-2.66667 4,0 6.88001,1.226668 l -0.26667,5.09334 h -0.24 q -1.38667,-4.986673 -6.24001,-4.986673 -3.22667,0 -4.98667,2.18667 -1.76,2.160002 -1.76,6.000007 0,3.840005 1.84,6.160008 1.84,2.293336 5.30667,2.400003 3.81334,0 6.02668,-2.453336 2.21333,-2.480004 2.21333,-6.666676 0,-0.32 0,-0.64 z"
           id="path207" /></g><path
         style="font-size:21.3333px;fill:#f1481f;fill-opacity:1"
         d="m 140.10151,88.302645 h 0.192 v 0.213333 h -6.80532 v -0.213333 h 0.192 q 0.46933,0 0.68266,-0.277333 0.23467,-0.298666 0.23467,-0.554666 0,-0.255999 -0.10667,-0.511999 l -1.04533,-2.623996 h -4.99199 l -1.10933,2.623996 q -0.10667,0.277333 -0.10667,0.533333 0,0.234666 0.21333,0.533332 0.23467,0.277333 0.72534,0.277333 h 0.17066 v 0.213333 h -4.56532 v -0.213333 h 0.192 q 0.49066,0 0.98133,-0.298666 0.49066,-0.298666 0.81066,-0.895999 l 4.928,-11.157315 q 1.00266,-2.111997 1.06666,-2.794663 h 0.192 l 6.33599,13.909312 q 0.32,0.618665 0.81067,0.938665 0.49066,0.298666 1.00266,0.298666 z M 128.8162,83.438653 h 4.26666 l -2.06933,-5.247992 z m 15.10695,-8.917319 h -0.91733 q -0.0427,0 -0.064,0 v 12.437313 q 0.0213,0.789332 0.68266,1.173332 0.32,0.170666 0.68267,0.170666 h 0.27733 v 0.213333 h -6.48532 v -0.213333 h 0.27733 q 0.768,0 1.17333,-0.661332 0.17067,-0.298666 0.192,-0.661332 V 75.139999 q -0.0213,-0.554665 -0.42666,-0.938665 -0.384,-0.405333 -0.93867,-0.405333 h -0.27733 v -0.213333 h 7.31732 q 2.06933,0 3.49866,0.895999 0.72533,0.447999 1.152,1.258665 0.42667,0.789332 0.42667,1.81333 0,1.002665 -0.36267,1.855997 -0.34133,0.853332 -1.17333,1.493331 -0.81067,0.639999 -1.96267,0.767999 1.23734,0.405333 2.176,1.87733 2.304,3.690661 3.41333,4.39466 0.55466,0.341333 1.38666,0.362666 v 0.213333 h -2.09066 q -1.81333,0 -3.02933,-0.490666 -1.216,-0.511999 -1.984,-1.727997 -0.38399,-0.618666 -0.98133,-1.855997 -0.59733,-1.258665 -0.78933,-1.791997 -0.576,-1.279998 -1.45066,-1.429331 v -0.213333 h 0.66133 q 0.96,0 1.68533,-0.575999 0.74666,-0.575999 1.00266,-1.877331 0.0853,-0.447999 0.0853,-0.703999 0,-1.74933 -0.704,-2.517329 -0.704,-0.789332 -1.81333,-0.810665 -0.21333,0 -0.64,0 z"
         id="path208"
         sodipodi:insensitive="true" /></g></g><style
     type="text/css"
     id="style1">.st0{fill-rule:evenodd;clip-rule:evenodd;}</style></svg>
