<svg xmlns="http://www.w3.org/2000/svg" xmlns:xlink="http://www.w3.org/1999/xlink" xml:space="preserve" width="176.56" height="48.335"><defs><linearGradient id="a"><stop offset=".17" style="stop-color:#ff4343;stop-opacity:1"/><stop offset=".633" style="stop-color:#aa52a1;stop-opacity:1"/><stop offset="1" style="stop-color:#5560ff;stop-opacity:1"/></linearGradient><linearGradient xlink:href="#a" id="b" x1="26.242" x2="150.245" y1="72.912" y2="72.912" gradientUnits="userSpaceOnUse"/><path id="d" d="M14.25 65.875H177v35.75H14.25z"/><path id="e" d="M14.25 65.875H177v35.75H14.25z"/><clipPath id="c" clipPathUnits="userSpaceOnUse"><path d="M26.241 54.903V90.92h19.092c-.11-.059.043-.203.238-.377a2.408 2.408 0 0 1-.398-.138c-.019-.009-.035-.022-.051-.033l-.045.019c-.489.664-1.405.283-1.174-.847l.006-.028c-.02-.019-.038-.042-.058-.061-.252.039-.507-.091-.648-.374-.396.673-1.287.461-1.257-.66.006-.245-.025-.49 0-.736.01-.107.033-.213.05-.32-.016-.013-.03-.03-.046-.043-2.022 1.948-4.5.153-2.976-2.606-.186-.169-.325-.46-.342-.874-.01-.243-.016-.486-.015-.73.005-.394.062-.785.117-1.175.037-.295.088-.587.136-.88.049-.286.063-.575.077-.864.012-.321.017-.642.02-.963.002-.35.003-.701.013-1.052.006-.368.02-.734.05-1.101.025-.28.042-.562.053-.844.003-.35.084-.689.196-1.02.17-.453.453-.854.74-1.244l.053-.069c.02-.046.036-.093.056-.139.163-.365.299-.741.485-1.096.119-.205.25-.404.391-.594l.045-.156c.071-.266.13-.536.177-.807.106-.603.436-.889.754-.905a.592.592 0 0 1 .502.248c.355-.404.801-.619 1.26-.619.14 0 .28.022.419.06.024-.005.044-.006.067-.011l.084-.086c.27-.263.533-.532.823-.774.282-.228.613-.378.949-.51.35-.14.721-.212 1.094-.272a9.727 9.727 0 0 1 1.193-.098c.436-.014.872-.018 1.308-.021l1.04-.003c.006 0 .011 0 .017.002.039-.307.357-.553.862-.526.142.008.3.037.469.093.222.073.438.158.649.255.093.048.183.103.276.153a.71.71 0 0 1 .458.255c.087.05.176.094.261.145.166.1.324.21.486.314.14-.103.337-.164.586-.152.14.006.294.036.463.093l.346.12c.508.188 1.011.401 1.475.68.069.047.14.09.207.14.275.2.515.44.752.68.302.317.595.644.866.987.223.286.437.577.625.885.202.313.394.634.576.958.22.388.435.777.64 1.172.176.36.347.725.481 1.102.097.278.196.554.267.84.063.261.127.523.192.784.067.311.119.625.178.938.053.35.111.7.153 1.052.051.426.115.853.14 1.282.025.374.04.747.03 1.122-.012.304-.042.608-.086.91-.032.23-.057.462-.096.692-.042.25-.1.495-.148.743a7.074 7.074 0 0 1-.264.811 6.9 6.9 0 0 1-.438.855c-.267.445-.595.623-.87.612-.053.136-.1.274-.158.408-.224.5-.536.954-.856 1.398-.267.371-.539.74-.815 1.105-.447.59-.963.62-1.244.37l-.12.337c.385.355.236.932-.468 1.086a1.5 1.5 0 0 1-.073.102h66.975l-.261-.05a27.819 27.819 0 0 0-2.011-.318c-.107-.012-.213-.018-.32-.026-.303.302-.84.338-1.392-.074a16.284 16.284 0 0 0-.947.005c-.06.003-.12.022-.179.017-.024-.001.067-.052.054-.05-.707.165-1.211.031-1.362-.228-.664-.134-.86-.623-.618-.967-.027-.047-.02-.099-.033-.148-.142-.244-.062-.521.186-.708-.744-.3-.621-1.139.297-1.235 0-.006-.002-.012.002-.017a2.207 2.207 0 0 1-.453-.493c-.103-.154-.047-.072-.168-.247-.208-.312-.417-.623-.623-.936a6.033 6.033 0 0 1-.432-.817c-.1-.25-.2-.5-.248-.766-.06-.248-.107-.498-.168-.745-.066-.237-.15-.468-.231-.7-.13-.353-.252-.709-.357-1.07-.101-.38-.207-.758-.282-1.144a9.432 9.432 0 0 1-.142-1.442c.002-.35.017-.7.048-1.05.005-.065.027-.321.039-.323.304-.045.545-.092.761-.135v-.046c.011-.525.054-1.05.107-1.572.065-.539.124-1.095.37-1.59.224-.45.506-.727.788-.865.053-.158.089-.32.15-.475.164-.397.333-.795.58-1.15.391-.563.834-.801 1.204-.803.035 0 .066.01.099.015.017-.165.043-.329.091-.487.023-.076.152-.053.23-.077.53-.161 1.073-.289 1.618-.394l.08-.062c.143-.1.327-.237.482-.321.226-.123.412-.191.654-.28.054-.02.097-.033.145-.05a.715.715 0 0 1 .273-.094c.023-.028.049-.054.076-.08-.116-.342.131-.77.845-.9.306-.056.617-.076.927-.096.343-.017.687-.034 1.03-.029.18.003.303.01.479.02.258.01.509.067.761.115.089.001.177-.001.266.002.576.016 1.152.039 1.726.086.542.053 1.085.12 1.596.313.14.051.231.083.37.142.228.098.448.216.67.33.284.156.563.323.835.5a.734.734 0 0 1 .264.176c.343.237.683.477 1.009.737.395.316.783.64 1.15.987.092.086.311.29.4.377.178.174.346.354.512.539l.158.174c.275.304.553.606.85.89.156.143.314.283.493.398.687.442.667 1.016.296 1.244.024.041.051.07.074.113.08.158.046.085.11.22.122.26.227.527.314.8.094.267.166.539.207.819.035.212.07.424.091.638.017.168.026.339.051.506.031.228.057.456.085.684.03.24.05.48.042.722v.64c0 .194-.003.387-.003.58 0 .193 0 .386-.003.58a6.107 6.107 0 0 1-.023.556c-.024.2-.061.398-.132.588-.065.175-.13.35-.224.514-.095.18-.2.355-.305.53-.1.171-.187.349-.275.526-.091.178-.137.378-.244.55a2.468 2.468 0 0 0-.142.37c-.098.314-.238.54-.391.724-.05.236-.1.47-.156.705-.06.244-.126.486-.198.727.268.084.603.204.595.493-.007.24-.044.417-.104.55.514.057 1.028.114 1.543.168.2.024.433.046.63.094.067.016.173 0 .194.064.259.764.552 1.233-.271 1.32-.443.038-.887.061-1.331.08-.156.005-.31.005-.466.009.195.395-.126.91-.97.905a15.98 15.98 0 0 1-.502-.008c.02.076.028.153.015.226h15.778V54.903Zm29.927 21.562c-.018.008-.022.03-.021.057.006-.02.015-.038.02-.057zm68.343.166-.029.017c-.038.046-.083.086-.121.132-.073.094-.145.19-.217.285-.018.05-.038.089-.083.221-.024.074-.047.147-.072.22-.009.029-.02.057-.03.086-.004.011-.003.025-.01.035-.005.006.002-.017.003-.025.008-.083.009-.152.003-.207-.085.412-.348.619-.624.616a1.527 1.527 0 0 1-.158.12v.005c.023.523-.15.838-.384.95-.073.493-.349.758-.642.77.05.365.08.644.125 1.048.027.272.05.543.076.815.032-.064.065-.128.099-.191.066-.106.128-.215.2-.318.208-.302.474-.575.815-.731.155-.071.257-.1.322-.095.413.029-.691 1.356-.053 1.376a.688.688 0 0 1 .408-.151c.348-.005.614.326.55.852a.86.86 0 0 1 .346.248c.116-.28.327-.42.546-.42.304 0 .61.286.707.825.1-.243.38-.465.865-.543.395-.064.792-.107 1.192-.126.211-.012.421-.041.632-.057.1-.174.221-.338.339-.5.126-.177.258-.349.391-.52-.35.135-.696.278-1.039.43-.315.144-.164.074-.452.211-1.229.588-1.835-.63-.606-1.216.316-.15.153-.074.49-.227l.015-.008c-.192-.21-.198-.553.087-.867a.586.586 0 0 1-.043-.436c-.852.335-1.364-.253-1.003-.815-.11.013-.22.036-.331.04-1.234.036-1.351-1.014-.36-1.29.083-.156.204-.315.414-.464l.025-.018c-.384.18-.77.353-1.16.521-.858.37-1.388-.095-1.233-.598zm-70.077.38-.294.111c-1.276.473-2.571.892-3.84 1.382l-.42.156-.015.111c-.02.249-.026.498-.025.747-.004.3-.007.601-.027.9-.023.266-.06.53-.135.786-.076.274-.155.548-.223.824-.052.206-.109.41-.147.62.082-.004.165-.004.247-.008.517-.025 1.034-.053 1.551-.069a162.92 162.92 0 0 1 2.046-.062c.053-.143.109-.285.168-.427.11-.239.198-.487.282-.736.074-.258.174-.505.3-.742l.406-.694c.044-.344.095-.688.127-1.033.025-.274.025-.36.03-.635.002-.105.002-.211.003-.316-.007-.305-.019-.61-.034-.915zm59.476.774c-.002.034-.006.067.013.075l-.013-.075zM54.46 90.848l-.062.036-.077.036h.97a.725.725 0 0 1-.021-.067c-.27 0-.54.004-.81-.005zm-8.064.05a7.143 7.143 0 0 0-.4.022h1.002a31.96 31.96 0 0 0-.602-.022z" style="fill:red;fill-opacity:1;fill-rule:nonzero;stroke:none;stroke-width:.759227"/></clipPath></defs><g style="display:inline"><path d="M70.6 60.39c.59 1.27 1.372 3.16 1.732 4.7.82 2.57-.703 2.64-3.503 1.59-2.06-1.23-4.12-2.47-6.18-3.7-1.05-.74-1.55-1.47-1.38-2.19.34-1.42 3.08-2.16 5.33-2.6 2.86-.57 2.66-.69 4 2.2zm32.91 7.5c-2.77-2.97-5.97-4.9-9.67-6.76-8.1-4.08-13.06-3.58-21.66-3.58l2.89 7.5c1.21 1.6 2.58 2.73 4.66 2.84zm5.32-2.2a71.276 71.276 0 0 0-11.59-5.82c-12.91-5.09-22.78-6-36.32-1.9-4.08 1.55-8.16 3.1-12.24 4.06-4.03.96-21.48 1.88-21.91 4.81l4.31 5.15c-1.57 1.36-2.85 3.03-3.32 5.64.13 1.61.57 2.96 1.33 4.04 1.29 1.85 5.07 3.76 7.11 2.67.65-.35 1.02-1.05 1.01-2.24-.06-23.9 28.79-21.18 26.62 2.82h50.34c-9.32-24.04 30.44-24.13 23.38-.83 2.48 2.68 8.33-1.36 12.1-9.95a27.87 27.87 0 0 0-3.42-2.89c.06-.05-.06.19.15-.17s-.51-1.87-1.99-2.74c-7.76-4.55-26.47-4.43-35.56-2.65z" clip-path="url(#c)" style="display:inline;opacity:1;fill:url(#b);fill-opacity:1;stroke:none;stroke-width:.923979;stroke-dasharray:none;fill-rule:evenodd;clip-rule:evenodd" transform="matrix(1.30314 0 0 1.33127 -34.884 -73.745)"/><g style="display:inline"><text xml:space="preserve" style="font-style:normal;font-variant:normal;font-weight:700;font-stretch:normal;font-size:18.6667px;font-family:&quot;Cinzel Decorative&quot;;-inkscape-font-specification:&quot;Cinzel Decorative Bold&quot;;letter-spacing:-2.49301px;word-spacing:.432368px;white-space:pre;shape-inside:url(#d);display:inline;opacity:.614958;fill:#fff;fill-rule:evenodd;stroke:#000;stroke-width:.534314;stroke-dasharray:none;stroke-opacity:1;filter:url(#filter30)" transform="matrix(1.08419 0 0 1.16695 3.514 -62.037)"><tspan x="14.25" y="88.516"><tspan dx="0 -0.43236753" style="font-weight:900;font-size:26.6667px;-inkscape-font-specification:&quot;Cinzel Decorative Heavy&quot;">C </tspan><tspan dx="0.43236828 0 0 0 0 -0.43236849" style="font-size:21.3333px">inema </tspan><tspan dx=".432" style="font-weight:900;font-size:26.6667px;-inkscape-font-specification:&quot;Cinzel Decorative Heavy&quot;">C</tspan><tspan style="font-size:21.3333px">ar</tspan></tspan></text><text xml:space="preserve" style="font-style:normal;font-variant:normal;font-weight:700;font-stretch:normal;font-size:18.6667px;font-family:&quot;Cinzel Decorative&quot;;-inkscape-font-specification:&quot;Cinzel Decorative Bold&quot;;letter-spacing:-2.49301px;word-spacing:.432368px;white-space:pre;shape-inside:url(#e);display:inline;opacity:.609418;fill:#fff;fill-rule:evenodd;stroke:#000;stroke-width:0;stroke-dasharray:none;stroke-opacity:1;filter:url(#filter165)" transform="matrix(1.08419 0 0 1.16695 3.514 -62.037)"><tspan x="14.25" y="88.516"><tspan dx="0 -0.43236753" style="font-weight:900;font-size:26.6667px;-inkscape-font-specification:&quot;Cinzel Decorative Heavy&quot;">C </tspan><tspan dx="0.43236828 0 0 0 0 -0.43236849" style="font-size:21.3333px">inema </tspan><tspan dx=".432" style="font-weight:900;font-size:26.6667px;-inkscape-font-specification:&quot;Cinzel Decorative Heavy&quot;">C</tspan><tspan style="font-size:21.3333px">ar</tspan></tspan></text><g aria-label="C inema Car" style="font-weight:700;font-size:18.6667px;font-family:&quot;Cinzel Decorative&quot;;-inkscape-font-specification:&quot;Cinzel Decorative Bold&quot;;letter-spacing:-2.49301px;word-spacing:.432368px;white-space:pre;display:inline;fill:#fff;fill-rule:evenodd;stroke-width:.801026"><path d="M35.983 77.796q.16 1.067.16 2.267t-.32 2.48q-1.013 4.026-4.826 5.6-1.814.746-4 .746-6 0-9.254-2.613-3.226-2.613-3.226-7.04 0-4.453 3.36-7.093 3.36-2.667 9.12-2.667 4 0 6.88 1.227l-.267 5.093h-.24q-1.387-4.987-6.24-4.987-3.227 0-4.987 2.187-1.76 2.16-1.76 6t1.84 6.16q1.84 2.293 5.307 2.4 3.813 0 6.027-2.453 2.213-2.48 2.213-6.667v-.64z" style="font-weight:900;font-size:26.6667px;-inkscape-font-specification:&quot;Cinzel Decorative Heavy&quot;" transform="matrix(1.08419 0 0 1.16695 3.514 -62.037)"/><path d="M39.67 88.303q.554 0 .938-.384.406-.406.427-.96v-11.84q-.021-.555-.427-.939-.384-.384-.938-.384h-.278v-.213h6.486l-.022.213H45.6q-.554 0-.96.384-.405.384-.405.939v11.84q0 .554.405.96.406.384.96.384h.256l.022.213h-6.486v-.213Zm21.997-14.507q-.533 0-.917.384-.384.363-.405.896v11.008q0 1.43.192 2.41l.064.32h-.192l-10.774-10.26v8.469q0 .533.384.917.384.363.918.363h.405v.213h-6.464v-.213h.384q.555 0 .939-.363.384-.384.384-.939V75.93q0-1.408-.192-2.346l-.043-.32h.192l10.773 10.261v-8.427q-.021-.554-.405-.917-.384-.384-.917-.384h-.384v-.213h6.464v.213zm-.637 14.507q.555 0 .939-.384.405-.406.427-.96V75.076q-.064-.747-.704-1.11-.32-.17-.662-.17h-.277v-.213h8.17q.662 0 1.451-.128.79-.128 1.11-.256v3.733h-.214v-.256q0-.96-.576-1.536-.554-.597-1.514-.64h-3.584v6.208h2.816q.789-.021 1.3-.533.513-.534.513-1.302v-.192h.213v4.928h-.213v-.17q0-1.067-.853-1.579-.427-.235-.94-.256h-2.836v5.995h2.794q1.558 0 2.603-.896 1.067-.896 1.579-2.539h.213l-.981 4.352H60.753v-.213zm29.998 0h.341v.213h-6.4v-.192h.32q.363 0 .619-.277.256-.299.213-.64l-.832-7.744-4.01 6.912q-.79 1.322-.811 2.368h-.213l-5.483-9.216-.832 7.68q-.043.341.213.64.256.277.619.277h.32v.192h-4.459v-.213h.342q.597 0 1.024-.363.448-.363.533-.981l1.77-13.675h.193l6.613 10.88 6.357-10.88h.192l1.814 13.675q.106.618.533.981.448.363 1.024.363zm13.379 0h.192v.213h-6.805v-.213h.192q.469 0 .682-.278.235-.298.235-.554 0-.256-.107-.512l-1.045-2.624h-4.992l-1.11 2.624q-.106.277-.106.533 0 .235.213.533.235.278.726.278h.17v.213h-4.565v-.213h.192q.49 0 .981-.299.49-.299.81-.896L95 75.951q1.003-2.112 1.067-2.795h.192l6.336 13.91q.32.618.81.938.49.299 1.003.299zm-11.285-4.864h4.266l-2.07-5.248z" style="font-size:21.3333px" transform="matrix(1.08419 0 0 1.16695 3.514 -62.037)"/><path d="M126.45 77.796q.16 1.067.16 2.267t-.32 2.48q-1.013 4.026-4.826 5.6-1.813.746-4 .746-6 0-9.253-2.613-3.227-2.613-3.227-7.04 0-4.453 3.36-7.093 3.36-2.667 9.12-2.667 4 0 6.88 1.227l-.267 5.093h-.24q-1.386-4.987-6.24-4.987-3.226 0-4.986 2.187-1.76 2.16-1.76 6t1.84 6.16q1.84 2.293 5.306 2.4 3.814 0 6.027-2.453 2.213-2.48 2.213-6.667v-.64z" style="font-weight:900;font-size:26.6667px;-inkscape-font-specification:&quot;Cinzel Decorative Heavy&quot;" transform="matrix(1.08419 0 0 1.16695 3.514 -62.037)"/><path d="M140.102 88.303h.192v.213h-6.806v-.213h.192q.47 0 .683-.278.235-.298.235-.554 0-.256-.107-.512l-1.045-2.624h-4.992l-1.11 2.624q-.106.277-.106.533 0 .235.213.533.235.278.725.278h.17v.213h-4.564v-.213h.192q.49 0 .98-.299.492-.299.812-.896l4.928-11.157q1.002-2.112 1.066-2.795h.192l6.336 13.91q.32.618.81.938.492.299 1.004.299zm-11.286-4.864h4.267l-2.07-5.248zm15.107-8.918H142.942V86.96q.021.789.682 1.173.32.17.683.17h.277v.214H138.1v-.213h.277q.768 0 1.174-.662.17-.298.192-.661V75.14q-.021-.555-.427-.939-.384-.405-.939-.405h-.277v-.213h7.317q2.07 0 3.5.896.724.448 1.151 1.258.427.79.427 1.814 0 1.002-.363 1.856-.341.853-1.173 1.493-.81.64-1.963.768 1.237.405 2.176 1.877 2.304 3.691 3.413 4.395.555.341 1.387.363v.213h-2.09q-1.814 0-3.03-.49-1.216-.513-1.984-1.729-.384-.618-.981-1.856-.598-1.258-.79-1.792-.576-1.28-1.45-1.429v-.213h.661q.96 0 1.685-.576.747-.576 1.003-1.878.085-.448.085-.704 0-1.749-.704-2.517-.704-.79-1.813-.81h-.64z" style="font-size:21.3333px;fill:#f1481f;fill-opacity:1" transform="matrix(1.08419 0 0 1.16695 3.514 -62.037)"/></g></g></g></svg>